<?xml version="1.0" encoding="utf-8"?>
<!-- Generator: Adobe Illustrator 25.0.1, SVG Export Plug-In . SVG Version: 6.00 Build 0)  -->
<svg version="1.0" id="layer" xmlns="http://www.w3.org/2000/svg" xmlns:xlink="http://www.w3.org/1999/xlink" x="0px" y="0px"
	 viewBox="0 0 850 660" style="enable-background:new 0 0 850 660;" xml:space="preserve">
<style type="text/css">
	.st0{fill:#00A082;}
	.st1{fill:#FFCC1B;}
</style>
<path class="st0" d="M120,354.1v-0.4c0-37.4,28.6-69,68.9-69c20,0,33.3,4.8,45.6,13.6c3,2.2,4.8,5.8,4.8,9.5
	c0,6.4-5.2,11.6-11.6,11.6l0,0c-3.1,0-5.4-1.3-7.2-2.7c-8.6-6.2-18-10.5-32.4-10.5c-24.7,0-43.4,21.6-43.4,47.1v0.4
	c0,27.5,18.1,47.8,45.4,47.8c12.6,0,24.1-4,32.2-10.1v-25H196c-5.7,0-10.5-4.4-10.5-10.1S190.3,346,196,346h37.3
	c6.7,0,11.8,5.1,11.8,11.8v35.7c0,6.7-2.7,11.5-8.2,14.9c-11.5,7.7-27.5,14.5-47.5,14.5C147.5,422.7,120,392.9,120,354.1 M266,291.6
	c0-6.3,5-11.4,11.3-11.5c0.1,0,0.1,0,0.2,0c6.5,0,11.6,5.1,11.6,11.5v118.2c0,6.5-5.1,11.5-11.6,11.5c-6.3,0-11.4-5-11.5-11.3
	c0-0.1,0-0.1,0-0.2C266,409.8,266,291.6,266,291.6z M307,370.7v-0.4c0-28.8,22.8-52.6,53.7-52.6c30.9,0,53.6,23.5,53.6,52.3v0.4
	c0,28.6-22.8,52.5-54,52.5C329.7,422.7,307,399.3,307,370.7 M391.3,370.7v-0.4c0-17.7-12.8-32.5-30.9-32.5
	c-18.6,0-30.3,14.5-30.3,32v0.4c0,17.6,12.8,32.2,30.7,32.2C379.4,402.6,391.3,388,391.3,370.7 M472,422.3h-1.1
	c-6.4,0-10.5-4-13.2-10.1l-33.6-76.8c-0.6-1.7-1.3-3.7-1.3-5.7c0-5.7,5.1-11.1,11.5-11.1c6.4,0,9.5,3.7,11.5,8.4l25.9,66.8
	l26.4-67.2c1.7-4,4.8-8.1,10.9-8.1c6.4,0,11.2,4.8,11.2,11.1c0,2.1-0.7,4.4-1.3,5.5l-33.6,77.1C482.5,418.2,478.4,422.3,472,422.3
	 M528.6,370.7v-0.4c0-28.8,22.8-52.6,53.7-52.6c30.9,0,53.6,23.5,53.6,52.3v0.4c0,28.6-22.8,52.5-54,52.5
	C551.2,422.7,528.6,399.3,528.6,370.7 M612.9,370.7v-0.4c0-17.7-12.8-32.5-30.9-32.5c-18.6,0-30.3,14.5-30.3,32v0.4
	c0,17.6,12.8,32.2,30.8,32.2C601,402.6,612.9,388,612.9,370.7"/>
<path class="st1" d="M674.6,226.2c-25,0-45.3,20.3-45.3,45.3c0,9.5,2.9,18.7,8.5,26.4l1.2,1.7l23.6,33.4c0,0,2.9,4.8,9.2,4.8h5.7
	c6.2,0,9.2-4.8,9.2-4.8l23.6-33.4l1.2-1.7c5.6-7.8,8.6-16.9,8.6-26.4C719.9,246.4,699.6,226.2,674.6,226.2 M693.2,284.9l-1.2,1.7
	l-17.3,24.6l-17.5-24.6l-1.2-1.8c-2.8-4-4.4-8.6-4.4-13.4c0-12.7,10.2-22.9,22.9-23c0,0,0,0,0.1,0c12.7,0,22.9,10.2,23,22.9
	c0,0,0,0,0,0.1C697.5,276.2,696,281,693.2,284.9 M661.9,358.1c0-6.8,5.4-12.5,12.6-12.5c7.3,0,12.6,5.5,12.6,12.3v0.1
	c0,6.7-5.4,12.3-12.7,12.3C667.1,370.3,661.9,364.8,661.9,358.1"/>
</svg>
