<?xml version="1.0" encoding="UTF-8"?>
<svg xmlns="http://www.w3.org/2000/svg" xmlns:xlink="http://www.w3.org/1999/xlink" width="0" height="0">
<symbol id="english" viewBox="0 0 301 151"><g fill="none"><path fill="#fff" d="M.5.5h299.843v149.983H.5z"/><path fill="#cf142b" d="M135.428 90.444v60.039h29.988V90.444h134.928V60.46H165.416V.5h-29.988v59.96H.5v29.984z"/><path fill="#00247d" d="M175.415 49.049V.5h97.08zm0 52.884v48.55h97.08zm-49.987 0v48.55H28.349zm0-52.884V.5H28.349zM.501 14.442v36.051h72.087zm299.842 0v36.051h-72.087zm0 122.099V100.49h-72.087zm-299.842 0V100.49h72.087z"/><path fill="#cf142b" d="M300.343.5h-16.654L183.9 50.493h16.654L300.5.5m-183.557 99.987h-16.654L.5 150.48h16.654l99.946-49.993M83.768 50.532h16.653L.5.5v8.385zm133.255 49.936h-16.654L300.29 150.5v-8.385z"/></g></symbol>
<symbol id="ukraine" viewBox="0 0 640 480"><g fill-rule="evenodd" stroke-width="1"><path fill="#ffd700" d="M0 0h640v480H0z"/><path fill="#0057b8" d="M0 0h640v240H0z"/></g></symbol>

<symbol id="romania"  viewBox="0 0 3 2">
<rect width="3" height="2" x="0" y="0" fill="#002B7F"/>
<rect width="2" height="2" x="1" y="0" fill="#FCD116"/>
<rect width="1" height="2" x="2" y="0" fill="#CE1126"/>
</symbol>
<symbol id="more" viewBox="0 0 24 24"><g fill="none"><path d="m12.593 23.258l-.011.002l-.071.035l-.02.004l-.014-.004l-.071-.035q-.016-.005-.024.005l-.004.01l-.017.428l.005.02l.01.013l.104.074l.015.004l.012-.004l.104-.074l.012-.016l.004-.017l-.017-.427q-.004-.016-.017-.018m.265-.113l-.013.002l-.185.093l-.01.01l-.003.011l.018.43l.005.012l.008.007l.201.093q.019.005.029-.008l.004-.014l-.034-.614q-.005-.018-.02-.022m-.715.002a.02.02 0 0 0-.027.006l-.006.014l-.034.614q.001.018.017.024l.015-.002l.201-.093l.01-.008l.004-.011l.017-.43l-.003-.012l-.01-.01z"/><path fill="currentColor" d="M12 16.5a1.5 1.5 0 1 1 0 3a1.5 1.5 0 0 1 0-3m0-6a1.5 1.5 0 1 1 0 3a1.5 1.5 0 0 1 0-3m0-6a1.5 1.5 0 1 1 0 3a1.5 1.5 0 0 1 0-3"/></g></symbol>
</svg>
