<svg xmlns="http://www.w3.org/2000/svg" style="display: none;">
  <symbol id="home" viewBox="0 0 24 24">
    <path d="M10 20v-6h4v6h5v-8h3L12 3 2 12h3v8z"/>
  </symbol>
  <symbol id="user" viewBox="0 0 24 24">
    <path d="M12 12c2.7 0 5-2.3 5-5s-2.3-5-5-5-5 2.3-5 5 2.3 5 5 5zm0 2c-3.3 0-10 1.7-10 5v3h20v-3c0-3.3-6.7-5-10-5z"/>
  </symbol>
  <symbol id="glovo" viewBox="0 0 48 48">
<path fill="none"  d="M23.983 4.5a12.235 12.235 0 0 0-12.227 12.252a12.046 12.046 0 0 0 2.307 7.133l.33.462l6.36 9.016a2.998 2.998 0 0 0 2.472 1.287h1.55a2.996 2.996 0 0 0 2.472-1.287l6.36-9.016l.33-.462a12.114 12.114 0 0 0 2.307-7.132A12.285 12.285 0 0 0 23.983 4.5m5.042 15.884l-.33.462l-4.68 6.638l-4.712-6.638l-.33-.495a6.289 6.289 0 0 1-1.186-3.632a6.195 6.195 0 0 1 6.182-6.209h.014a6.195 6.195 0 0 1 6.196 6.194v.014a6.36 6.36 0 0 1-1.154 3.665m-8.47 19.781a3.345 3.345 0 0 1 3.395-3.368a3.298 3.298 0 0 1 3.395 3.335v.034a3.395 3.395 0 0 1-6.79 0"/></symbol>
<symbol id="phone" viewBox="0 0 256 256">
<path  d="m222.37 158.46l-47.11-21.11l-.13-.06a16 16 0 0 0-15.17 1.4a8.12 8.12 0 0 0-.75.56L134.87 160c-15.42-7.49-31.34-23.29-38.83-38.51l20.78-24.71c.2-.25.39-.5.57-.77a16 16 0 0 0 1.32-15.06v-.12L97.54 33.64a16 16 0 0 0-16.62-9.52A56.26 56.26 0 0 0 32 80c0 79.4 64.6 144 144 144a56.26 56.26 0 0 0 55.88-48.92a16 16 0 0 0-9.51-16.62ZM176 208A128.14 128.14 0 0 1 48 80a40.2 40.2 0 0 1 34.87-40a.61.61 0 0 0 0 .12l21 47l-20.67 24.74a6.13 6.13 0 0 0-.57.77a16 16 0 0 0-1 15.7c9.06 18.53 27.73 37.06 46.46 46.11a16 16 0 0 0 15.75-1.14a8.44 8.44 0 0 0 .74-.56L168.89 152l47 21.05h.11A40.21 40.21 0 0 1 176 208Z"/>
</symbol>
<symbol id="delivery" viewBox="0 0 32 32">
<path fill="currentColor" d="M4 16h12v2H4zm-2-5h10v2H2z"/><path fill="currentColor" d="m29.919 16.606l-3-7A.999.999 0 0 0 26 9h-3V7a1 1 0 0 0-1-1H6v2h15v12.556A3.992 3.992 0 0 0 19.142 23h-6.284a4 4 0 1 0 0 2h6.284a3.98 3.98 0 0 0 7.716 0H29a1 1 0 0 0 1-1v-7a.997.997 0 0 0-.081-.394ZM9 26a2 2 0 1 1 2-2a2.002 2.002 0 0 1-2 2Zm14-15h2.34l2.144 5H23Zm0 15a2 2 0 1 1 2-2a2.002 2.002 0 0 1-2 2Zm5-3h-1.142A3.995 3.995 0 0 0 23 20v-2h5Z"/>
</symbol>
<symbol id="instagram" viewBox="0 0 256 256">
<path fill="#0A0A08" d="M128 23.064c34.177 0 38.225.13 51.722.745c12.48.57 19.258 2.655 23.769 4.408c5.974 2.322 10.238 5.096 14.717 9.575c4.48 4.479 7.253 8.743 9.575 14.717c1.753 4.511 3.838 11.289 4.408 23.768c.615 13.498.745 17.546.745 51.723c0 34.178-.13 38.226-.745 51.723c-.57 12.48-2.655 19.257-4.408 23.768c-2.322 5.974-5.096 10.239-9.575 14.718c-4.479 4.479-8.743 7.253-14.717 9.574c-4.511 1.753-11.289 3.839-23.769 4.408c-13.495.616-17.543.746-51.722.746c-34.18 0-38.228-.13-51.723-.746c-12.48-.57-19.257-2.655-23.768-4.408c-5.974-2.321-10.239-5.095-14.718-9.574c-4.479-4.48-7.253-8.744-9.574-14.718c-1.753-4.51-3.839-11.288-4.408-23.768c-.616-13.497-.746-17.545-.746-51.723c0-34.177.13-38.225.746-51.722c.57-12.48 2.655-19.258 4.408-23.769c2.321-5.974 5.095-10.238 9.574-14.717c4.48-4.48 8.744-7.253 14.718-9.575c4.51-1.753 11.288-3.838 23.768-4.408c13.497-.615 17.545-.745 51.723-.745M128 0C93.237 0 88.878.147 75.226.77c-13.625.622-22.93 2.786-31.071 5.95c-8.418 3.271-15.556 7.648-22.672 14.764C14.367 28.6 9.991 35.738 6.72 44.155C3.555 52.297 1.392 61.602.77 75.226C.147 88.878 0 93.237 0 128c0 34.763.147 39.122.77 52.774c.622 13.625 2.785 22.93 5.95 31.071c3.27 8.417 7.647 15.556 14.763 22.672c7.116 7.116 14.254 11.492 22.672 14.763c8.142 3.165 17.446 5.328 31.07 5.95c13.653.623 18.012.77 52.775.77s39.122-.147 52.774-.77c13.624-.622 22.929-2.785 31.07-5.95c8.418-3.27 15.556-7.647 22.672-14.763c7.116-7.116 11.493-14.254 14.764-22.672c3.164-8.142 5.328-17.446 5.95-31.07c.623-13.653.77-18.012.77-52.775s-.147-39.122-.77-52.774c-.622-13.624-2.786-22.929-5.95-31.07c-3.271-8.418-7.648-15.556-14.764-22.672C227.4 14.368 220.262 9.99 211.845 6.72c-8.142-3.164-17.447-5.328-31.071-5.95C167.122.147 162.763 0 128 0Zm0 62.27c-36.302 0-65.73 29.43-65.73 65.73c0 36.302 29.428 65.73 65.73 65.73c36.301 0 65.73-29.428 65.73-65.73c0-36.301-29.429-65.73-65.73-65.73Zm0 108.397c-23.564 0-42.667-19.103-42.667-42.667S104.436 85.333 128 85.333s42.667 19.103 42.667 42.667s-19.103 42.667-42.667 42.667Zm83.686-110.994c0 8.484-6.876 15.36-15.36 15.36c-8.483 0-15.36-6.876-15.36-15.36c0-8.483 6.877-15.36 15.36-15.36c8.484 0 15.36 6.877 15.36 15.36Z"/>
</symbol>
<symbol id="threads" viewBox="0 0 24 24">
<path fill="currentColor" d="M17.743 11.123a8.547 8.547 0 0 0-.315-.142c-.185-3.414-2.05-5.368-5.182-5.388h-.042c-1.874 0-3.431.8-4.39 2.255l1.722 1.181c.716-1.087 1.84-1.319 2.669-1.319h.028c1.031.007 1.81.307 2.313.892c.367.425.612 1.014.733 1.756a13.176 13.176 0 0 0-2.96-.143c-2.977.172-4.892 1.908-4.763 4.321c.065 1.224.675 2.277 1.717 2.965c.88.582 2.015.866 3.195.802c1.557-.086 2.778-.68 3.63-1.766c.648-.825 1.057-1.894 1.238-3.241c.742.448 1.292 1.037 1.596 1.745c.517 1.205.547 3.184-1.068 4.797c-1.415 1.414-3.116 2.025-5.686 2.044c-2.851-.02-5.008-.935-6.41-2.717c-1.313-1.67-1.991-4.08-2.016-7.165c.025-3.085.703-5.496 2.016-7.165c1.402-1.782 3.558-2.696 6.41-2.717c2.871.02 5.065.94 6.521 2.73c.714.879 1.252 1.983 1.607 3.27l2.018-.538c-.43-1.585-1.107-2.95-2.027-4.083C18.43 1.2 15.7.024 12.185 0h-.014C8.66.024 5.963 1.205 4.15 3.51c-1.614 2.05-2.446 4.905-2.474 8.482v.016c.028 3.578.86 6.431 2.473 8.482c1.813 2.305 4.512 3.486 8.022 3.51h.014c3.12-.022 5.319-.839 7.13-2.649c2.371-2.368 2.3-5.336 1.518-7.158c-.56-1.307-1.629-2.368-3.09-3.07zm-5.387 5.065c-1.305.074-2.66-.512-2.728-1.766c-.05-.93.662-1.969 2.808-2.092c.246-.015.487-.021.724-.021c.78 0 1.508.075 2.171.22c-.247 3.088-1.697 3.59-2.975 3.66z"/>
</symbol>
<symbol id="whatsapp" viewBox="0 0 464 488">
<path fill="currentColor" d="M462 228q0 93-66 159t-160 66q-56 0-109-28L2 464l40-120q-32-54-32-116q0-93 66-158.5T236 4t160 65.5T462 228zM236 39q-79 0-134.5 55.5T46 228q0 62 36 111l-24 70l74-23q49 31 104 31q79 0 134.5-55.5T426 228T370.5 94.5T236 39zm114 241q-1-1-10-7q-3-1-19-8.5t-19-8.5q-9-3-13 2q-1 3-4.5 7.5t-7.5 9t-5 5.5q-4 6-12 1q-34-17-45-27q-7-7-13.5-15t-12-15t-5.5-8q-3-7 3-11q4-6 8-10l6-9q2-5-1-10q-4-13-17-41q-3-9-12-9h-11q-9 0-15 7q-19 19-19 45q0 24 22 57l2 3q2 3 4.5 6.5t7 9t9 10.5t10.5 11.5t13 12.5t14.5 11.5t16.5 10t18 8.5q16 6 27.5 10t18 5t9.5 1t7-1t5-1q9-1 21.5-9t15.5-17q8-21 3-26z"/>
</symbol>
<symbol id="close" viewBox="0 0 24 24"><path fill="currentColor" d="M19 6.41L17.59 5L12 10.59L6.41 5L5 6.41L10.59 12L5 17.59L6.41 19L12 13.41L17.59 19L19 17.59L13.41 12L19 6.41Z"/>
</symbol>
</svg>

